<svg xmlns="http://www.w3.org/2000/svg" xmlns:xlink="http://www.w3.org/1999/xlink" contentStyleType="text/css" height="1563px" preserveAspectRatio="none" style="width:705px;height:1563px;background:#FFFFFF;" version="1.1" viewBox="0 0 705 1563" width="705px" zoomAndPan="magnify"><defs/><g><ellipse cx="351.4063" cy="20" fill="#222222" rx="10" ry="10" style="stroke:#222222;stroke-width:1;"/><rect fill="#F1F1F1" height="33.9688" rx="12.5" ry="12.5" style="stroke:#181818;stroke-width:0.5;" width="232.3965" x="235.208" y="50"/><text fill="#000000" font-family="sans-serif" font-size="12" lengthAdjust="spacing" textLength="212.3965" x="245.208" y="71.1387">Extracción de la proteína de la PDB</text><rect fill="#F1F1F1" height="33.9688" rx="12.5" ry="12.5" style="stroke:#181818;stroke-width:0.5;" width="233.7383" x="234.5371" y="103.9688"/><text fill="#000000" font-family="sans-serif" font-size="12" lengthAdjust="spacing" textLength="213.7383" x="244.5371" y="125.1074">Verificación de la enzima adecuada</text><rect fill="#F1F1F1" height="33.9688" rx="12.5" ry="12.5" style="stroke:#181818;stroke-width:0.5;" width="190.0684" x="256.3721" y="206.3398"/><text fill="#000000" font-family="sans-serif" font-size="12" lengthAdjust="spacing" textLength="170.0684" x="266.3721" y="227.4785">Construcción de la molécula</text><polygon fill="#F1F1F1" points="249.5085,157.9375,453.304,157.9375,465.304,169.9375,453.304,181.9375,249.5085,181.9375,237.5085,169.9375,249.5085,157.9375" style="stroke:#181818;stroke-width:0.5;"/><text fill="#000000" font-family="sans-serif" font-size="11" lengthAdjust="spacing" textLength="8.7871" x="355.4063" y="192.1479">sí</text><text fill="#000000" font-family="sans-serif" font-size="11" lengthAdjust="spacing" textLength="203.7954" x="249.5085" y="173.7456">¿Necesita construcción de molécula?</text><polygon fill="#F1F1F1" points="351.4063,260.3086,363.4063,272.3086,351.4063,284.3086,339.4063,272.3086,351.4063,260.3086" style="stroke:#181818;stroke-width:0.5;"/><rect fill="#F1F1F1" height="33.9688" rx="12.5" ry="12.5" style="stroke:#181818;stroke-width:0.5;" width="202.7598" x="250.0264" y="304.3086"/><text fill="#000000" font-family="sans-serif" font-size="12" lengthAdjust="spacing" textLength="182.7598" x="260.0264" y="325.4473">Buscar proteína blanco (GLP1)</text><rect fill="#F1F1F1" height="33.9688" rx="12.5" ry="12.5" style="stroke:#181818;stroke-width:0.5;" width="325.8477" x="188.4824" y="358.2773"/><text fill="#000000" font-family="sans-serif" font-size="12" lengthAdjust="spacing" textLength="305.8477" x="198.4824" y="379.416">Valoración bibliográfica de estadios de la molécula</text><rect fill="#F1F1F1" height="33.9688" rx="12.5" ry="12.5" style="stroke:#181818;stroke-width:0.5;" width="218.8848" x="241.9639" y="460.6484"/><text fill="#000000" font-family="sans-serif" font-size="12" lengthAdjust="spacing" textLength="198.8848" x="251.9639" y="481.7871">Uso de AlphaFold para modelado</text><polygon fill="#F1F1F1" points="290.4282,412.2461,412.3843,412.2461,424.3843,424.2461,412.3843,436.2461,290.4282,436.2461,278.4282,424.2461,290.4282,412.2461" style="stroke:#181818;stroke-width:0.5;"/><text fill="#000000" font-family="sans-serif" font-size="11" lengthAdjust="spacing" textLength="8.7871" x="355.4063" y="446.4565">sí</text><text fill="#000000" font-family="sans-serif" font-size="11" lengthAdjust="spacing" textLength="121.9561" x="290.4282" y="428.0542">¿Modelado requerido?</text><polygon fill="#F1F1F1" points="351.4063,514.6172,363.4063,526.6172,351.4063,538.6172,339.4063,526.6172,351.4063,514.6172" style="stroke:#181818;stroke-width:0.5;"/><rect fill="#F1F1F1" height="33.9688" rx="12.5" ry="12.5" style="stroke:#181818;stroke-width:0.5;" width="255.5059" x="223.6533" y="558.6172"/><text fill="#000000" font-family="sans-serif" font-size="12" lengthAdjust="spacing" textLength="235.5059" x="233.6533" y="579.7559">Limpiar proteínas y completar residuos</text><rect fill="#F1F1F1" height="33.9688" rx="12.5" ry="12.5" style="stroke:#181818;stroke-width:0.5;" width="323.9082" x="189.4521" y="612.5859"/><text fill="#000000" font-family="sans-serif" font-size="12" lengthAdjust="spacing" textLength="303.9082" x="199.4521" y="633.7246">Generar dinámicas moleculares usando GROMACS</text><rect fill="#F1F1F1" height="33.9688" rx="12.5" ry="12.5" style="stroke:#181818;stroke-width:0.5;" width="295.8184" x="203.4971" y="666.5547"/><text fill="#000000" font-family="sans-serif" font-size="12" lengthAdjust="spacing" textLength="275.8184" x="213.4971" y="687.6934">Estabilizar proteínas y encontrar estado basal</text><rect fill="#F1F1F1" height="33.9688" rx="12.5" ry="12.5" style="stroke:#181818;stroke-width:0.5;" width="339.793" x="181.5098" y="720.5234"/><text fill="#000000" font-family="sans-serif" font-size="12" lengthAdjust="spacing" textLength="319.793" x="191.5098" y="741.6621">Realizar interacción proteica (dockeo citoplasmático)</text><rect fill="#F1F1F1" height="33.9688" rx="12.5" ry="12.5" style="stroke:#181818;stroke-width:0.5;" width="330.0547" x="186.3789" y="774.4922"/><text fill="#000000" font-family="sans-serif" font-size="12" lengthAdjust="spacing" textLength="310.0547" x="196.3789" y="795.6309">Mantener GLP1 estable mientras DPP4 se aproxima</text><rect fill="#F1F1F1" height="33.9688" rx="12.5" ry="12.5" style="stroke:#181818;stroke-width:0.5;" width="154.1914" x="274.3105" y="872.4609"/><text fill="#000000" font-family="sans-serif" font-size="12" lengthAdjust="spacing" textLength="134.1914" x="284.3105" y="893.5996">Repetir Autodock Vina</text><polygon fill="#F1F1F1" points="351.4063,828.4609,363.4063,840.4609,351.4063,852.4609,339.4063,840.4609,351.4063,828.4609" style="stroke:#181818;stroke-width:0.5;"/><polygon fill="#F1F1F1" points="257.0093,926.4297,445.8032,926.4297,457.8032,938.4297,445.8032,950.4297,257.0093,950.4297,245.0093,938.4297,257.0093,926.4297" style="stroke:#181818;stroke-width:0.5;"/><text fill="#000000" font-family="sans-serif" font-size="11" lengthAdjust="spacing" textLength="188.7939" x="257.0093" y="942.2378">¿Mejorar probabilidad estadística?</text><rect fill="#F1F1F1" height="33.9688" rx="12.5" ry="12.5" style="stroke:#181818;stroke-width:0.5;" width="256.918" x="222.9473" y="970.4297"/><text fill="#000000" font-family="sans-serif" font-size="12" lengthAdjust="spacing" textLength="236.918" x="232.9473" y="991.5684">Afirma valor inhibitorio en estado basal</text><rect fill="#F1F1F1" height="33.9688" rx="12.5" ry="12.5" style="stroke:#181818;stroke-width:0.5;" width="235.0801" x="233.8662" y="1024.3984"/><text fill="#000000" font-family="sans-serif" font-size="12" lengthAdjust="spacing" textLength="215.0801" x="243.8662" y="1045.5371">Análisis bibliográfico sobre ligandos</text><rect fill="#F1F1F1" height="33.9688" rx="12.5" ry="12.5" style="stroke:#181818;stroke-width:0.5;" width="315.998" x="193.4072" y="1078.3672"/><text fill="#000000" font-family="sans-serif" font-size="12" lengthAdjust="spacing" textLength="295.998" x="203.4072" y="1099.5059">Buscar ligandos en Aloe Vera y otros metabolitos</text><rect fill="#F1F1F1" height="33.9688" rx="12.5" ry="12.5" style="stroke:#181818;stroke-width:0.5;" width="180.002" x="261.4053" y="1132.3359"/><text fill="#000000" font-family="sans-serif" font-size="12" lengthAdjust="spacing" textLength="160.002" x="271.4053" y="1153.4746">Filtrar ligandos por ADMET</text><rect fill="#F1F1F1" height="33.9688" rx="12.5" ry="12.5" style="stroke:#181818;stroke-width:0.5;" width="311.5977" x="195.6074" y="1186.3047"/><text fill="#000000" font-family="sans-serif" font-size="12" lengthAdjust="spacing" textLength="291.5977" x="205.6074" y="1207.4434">Generar base de datos de fármacos comerciales</text><polygon fill="#F1F1F1" points="260.0305,1240.2734,442.782,1240.2734,454.782,1252.2734,442.782,1264.2734,260.0305,1264.2734,248.0305,1252.2734,260.0305,1240.2734" style="stroke:#181818;stroke-width:0.5;"/><text fill="#000000" font-family="sans-serif" font-size="11" lengthAdjust="spacing" textLength="182.7515" x="260.0305" y="1256.0815">¿Ligandos sintéticos o naturales?</text><text fill="#000000" font-family="sans-serif" font-size="11" lengthAdjust="spacing" textLength="52.7173" x="195.3132" y="1249.6792">sintéticos</text><text fill="#000000" font-family="sans-serif" font-size="11" lengthAdjust="spacing" textLength="51.8149" x="454.782" y="1249.6792">naturales</text><rect fill="#F1F1F1" height="33.9688" rx="12.5" ry="12.5" style="stroke:#181818;stroke-width:0.5;" width="296.873" x="38.8599" y="1274.2734"/><text fill="#000000" font-family="sans-serif" font-size="12" lengthAdjust="spacing" textLength="276.873" x="48.8599" y="1295.4121">Análisis de resultados por dinámica molecular</text><rect fill="#F1F1F1" height="33.9688" rx="12.5" ry="12.5" style="stroke:#181818;stroke-width:0.5;" width="319.5664" x="355.7329" y="1274.2734"/><text fill="#000000" font-family="sans-serif" font-size="12" lengthAdjust="spacing" textLength="299.5664" x="365.7329" y="1295.4121">Dockeo final para evaluar energías de interacción</text><polygon fill="#F1F1F1" points="351.4063,1314.2422,363.4063,1326.2422,351.4063,1338.2422,339.4063,1326.2422,351.4063,1314.2422" style="stroke:#181818;stroke-width:0.5;"/><rect fill="#F1F1F1" height="33.9688" rx="12.5" ry="12.5" style="stroke:#181818;stroke-width:0.5;" width="338.293" x="182.2598" y="1358.2422"/><text fill="#000000" font-family="sans-serif" font-size="12" lengthAdjust="spacing" textLength="318.293" x="192.2598" y="1379.3809">Análisis estadístico para evidenciar mejores ligandos</text><polygon fill="#F1F1F1" points="242.6389,1412.2109,460.1736,1412.2109,472.1736,1424.2109,460.1736,1436.2109,242.6389,1436.2109,230.6389,1424.2109,242.6389,1412.2109" style="stroke:#181818;stroke-width:0.5;"/><text fill="#000000" font-family="sans-serif" font-size="11" lengthAdjust="spacing" textLength="217.5347" x="242.6389" y="1428.019">¿Metabolitos superan inhibición actual?</text><text fill="#000000" font-family="sans-serif" font-size="11" lengthAdjust="spacing" textLength="8.7871" x="221.8518" y="1421.6167">sí</text><text fill="#000000" font-family="sans-serif" font-size="11" lengthAdjust="spacing" textLength="13.7017" x="472.1736" y="1421.6167">no</text><rect fill="#F1F1F1" height="33.9688" rx="12.5" ry="12.5" style="stroke:#181818;stroke-width:0.5;" width="329.0527" x="11" y="1446.2109"/><text fill="#000000" font-family="sans-serif" font-size="12" lengthAdjust="spacing" textLength="309.0527" x="21" y="1467.3496">Conclusión positiva sobre metabolitos de Aloe Vera</text><rect fill="#F1F1F1" height="33.9688" rx="12.5" ry="12.5" style="stroke:#181818;stroke-width:0.5;" width="334.4668" x="360.0527" y="1446.2109"/><text fill="#000000" font-family="sans-serif" font-size="12" lengthAdjust="spacing" textLength="314.4668" x="370.0527" y="1467.3496">Conclusión negativa sobre metabolitos de Aloe Vera</text><polygon fill="#F1F1F1" points="351.4063,1486.1797,363.4063,1498.1797,351.4063,1510.1797,339.4063,1498.1797,351.4063,1486.1797" style="stroke:#181818;stroke-width:0.5;"/><ellipse cx="351.4063" cy="1541.1797" fill="none" rx="11" ry="11" style="stroke:#222222;stroke-width:1;"/><ellipse cx="351.4063" cy="1541.1797" fill="#222222" rx="6" ry="6" style="stroke:#222222;stroke-width:1;"/><line style="stroke:#181818;stroke-width:1;" x1="351.4063" x2="351.4063" y1="30" y2="50"/><polygon fill="#181818" points="347.4063,40,351.4063,50,355.4063,40,351.4063,44" style="stroke:#181818;stroke-width:1;"/><line style="stroke:#181818;stroke-width:1;" x1="351.4063" x2="351.4063" y1="83.9688" y2="103.9688"/><polygon fill="#181818" points="347.4063,93.9688,351.4063,103.9688,355.4063,93.9688,351.4063,97.9688" style="stroke:#181818;stroke-width:1;"/><line style="stroke:#181818;stroke-width:1;" x1="351.4063" x2="351.4063" y1="181.9375" y2="206.3398"/><polygon fill="#181818" points="347.4063,196.3398,351.4063,206.3398,355.4063,196.3398,351.4063,200.3398" style="stroke:#181818;stroke-width:1;"/><line style="stroke:#181818;stroke-width:1;" x1="465.304" x2="477.304" y1="169.9375" y2="169.9375"/><polygon fill="#181818" points="473.304,213.3242,477.304,223.3242,481.304,213.3242,477.304,217.3242" style="stroke:#181818;stroke-width:1;"/><line style="stroke:#181818;stroke-width:1;" x1="477.304" x2="477.304" y1="169.9375" y2="272.3086"/><line style="stroke:#181818;stroke-width:1;" x1="477.304" x2="363.4063" y1="272.3086" y2="272.3086"/><polygon fill="#181818" points="373.4063,268.3086,363.4063,272.3086,373.4063,276.3086,369.4063,272.3086" style="stroke:#181818;stroke-width:1;"/><line style="stroke:#181818;stroke-width:1;" x1="351.4063" x2="351.4063" y1="240.3086" y2="260.3086"/><polygon fill="#181818" points="347.4063,250.3086,351.4063,260.3086,355.4063,250.3086,351.4063,254.3086" style="stroke:#181818;stroke-width:1;"/><line style="stroke:#181818;stroke-width:1;" x1="351.4063" x2="351.4063" y1="137.9375" y2="157.9375"/><polygon fill="#181818" points="347.4063,147.9375,351.4063,157.9375,355.4063,147.9375,351.4063,151.9375" style="stroke:#181818;stroke-width:1;"/><line style="stroke:#181818;stroke-width:1;" x1="351.4063" x2="351.4063" y1="284.3086" y2="304.3086"/><polygon fill="#181818" points="347.4063,294.3086,351.4063,304.3086,355.4063,294.3086,351.4063,298.3086" style="stroke:#181818;stroke-width:1;"/><line style="stroke:#181818;stroke-width:1;" x1="351.4063" x2="351.4063" y1="338.2773" y2="358.2773"/><polygon fill="#181818" points="347.4063,348.2773,351.4063,358.2773,355.4063,348.2773,351.4063,352.2773" style="stroke:#181818;stroke-width:1;"/><line style="stroke:#181818;stroke-width:1;" x1="351.4063" x2="351.4063" y1="436.2461" y2="460.6484"/><polygon fill="#181818" points="347.4063,450.6484,351.4063,460.6484,355.4063,450.6484,351.4063,454.6484" style="stroke:#181818;stroke-width:1;"/><line style="stroke:#181818;stroke-width:1;" x1="424.3843" x2="470.8486" y1="424.2461" y2="424.2461"/><polygon fill="#181818" points="466.8486,467.6328,470.8486,477.6328,474.8486,467.6328,470.8486,471.6328" style="stroke:#181818;stroke-width:1;"/><line style="stroke:#181818;stroke-width:1;" x1="470.8486" x2="470.8486" y1="424.2461" y2="526.6172"/><line style="stroke:#181818;stroke-width:1;" x1="470.8486" x2="363.4063" y1="526.6172" y2="526.6172"/><polygon fill="#181818" points="373.4063,522.6172,363.4063,526.6172,373.4063,530.6172,369.4063,526.6172" style="stroke:#181818;stroke-width:1;"/><line style="stroke:#181818;stroke-width:1;" x1="351.4063" x2="351.4063" y1="494.6172" y2="514.6172"/><polygon fill="#181818" points="347.4063,504.6172,351.4063,514.6172,355.4063,504.6172,351.4063,508.6172" style="stroke:#181818;stroke-width:1;"/><line style="stroke:#181818;stroke-width:1;" x1="351.4063" x2="351.4063" y1="392.2461" y2="412.2461"/><polygon fill="#181818" points="347.4063,402.2461,351.4063,412.2461,355.4063,402.2461,351.4063,406.2461" style="stroke:#181818;stroke-width:1;"/><line style="stroke:#181818;stroke-width:1;" x1="351.4063" x2="351.4063" y1="538.6172" y2="558.6172"/><polygon fill="#181818" points="347.4063,548.6172,351.4063,558.6172,355.4063,548.6172,351.4063,552.6172" style="stroke:#181818;stroke-width:1;"/><line style="stroke:#181818;stroke-width:1;" x1="351.4063" x2="351.4063" y1="592.5859" y2="612.5859"/><polygon fill="#181818" points="347.4063,602.5859,351.4063,612.5859,355.4063,602.5859,351.4063,606.5859" style="stroke:#181818;stroke-width:1;"/><line style="stroke:#181818;stroke-width:1;" x1="351.4063" x2="351.4063" y1="646.5547" y2="666.5547"/><polygon fill="#181818" points="347.4063,656.5547,351.4063,666.5547,355.4063,656.5547,351.4063,660.5547" style="stroke:#181818;stroke-width:1;"/><line style="stroke:#181818;stroke-width:1;" x1="351.4063" x2="351.4063" y1="700.5234" y2="720.5234"/><polygon fill="#181818" points="347.4063,710.5234,351.4063,720.5234,355.4063,710.5234,351.4063,714.5234" style="stroke:#181818;stroke-width:1;"/><line style="stroke:#181818;stroke-width:1;" x1="351.4063" x2="351.4063" y1="754.4922" y2="774.4922"/><polygon fill="#181818" points="347.4063,764.4922,351.4063,774.4922,355.4063,764.4922,351.4063,768.4922" style="stroke:#181818;stroke-width:1;"/><line style="stroke:#181818;stroke-width:1;" x1="351.4063" x2="351.4063" y1="852.4609" y2="872.4609"/><polygon fill="#181818" points="347.4063,862.4609,351.4063,872.4609,355.4063,862.4609,351.4063,866.4609" style="stroke:#181818;stroke-width:1;"/><line style="stroke:#181818;stroke-width:1;" x1="457.8032" x2="469.8032" y1="938.4297" y2="938.4297"/><polygon fill="#181818" points="465.8032,899.4453,469.8032,889.4453,473.8032,899.4453,469.8032,895.4453" style="stroke:#181818;stroke-width:1;"/><line style="stroke:#181818;stroke-width:1;" x1="469.8032" x2="469.8032" y1="840.4609" y2="938.4297"/><line style="stroke:#181818;stroke-width:1;" x1="469.8032" x2="363.4063" y1="840.4609" y2="840.4609"/><polygon fill="#181818" points="373.4063,836.4609,363.4063,840.4609,373.4063,844.4609,369.4063,840.4609" style="stroke:#181818;stroke-width:1;"/><line style="stroke:#181818;stroke-width:1;" x1="351.4063" x2="351.4063" y1="906.4297" y2="926.4297"/><polygon fill="#181818" points="347.4063,916.4297,351.4063,926.4297,355.4063,916.4297,351.4063,920.4297" style="stroke:#181818;stroke-width:1;"/><line style="stroke:#181818;stroke-width:1;" x1="351.4063" x2="351.4063" y1="808.4609" y2="828.4609"/><polygon fill="#181818" points="347.4063,818.4609,351.4063,828.4609,355.4063,818.4609,351.4063,822.4609" style="stroke:#181818;stroke-width:1;"/><line style="stroke:#181818;stroke-width:1;" x1="351.4063" x2="351.4063" y1="950.4297" y2="970.4297"/><polygon fill="#181818" points="347.4063,960.4297,351.4063,970.4297,355.4063,960.4297,351.4063,964.4297" style="stroke:#181818;stroke-width:1;"/><line style="stroke:#181818;stroke-width:1;" x1="351.4063" x2="351.4063" y1="1004.3984" y2="1024.3984"/><polygon fill="#181818" points="347.4063,1014.3984,351.4063,1024.3984,355.4063,1014.3984,351.4063,1018.3984" style="stroke:#181818;stroke-width:1;"/><line style="stroke:#181818;stroke-width:1;" x1="351.4063" x2="351.4063" y1="1058.3672" y2="1078.3672"/><polygon fill="#181818" points="347.4063,1068.3672,351.4063,1078.3672,355.4063,1068.3672,351.4063,1072.3672" style="stroke:#181818;stroke-width:1;"/><line style="stroke:#181818;stroke-width:1;" x1="351.4063" x2="351.4063" y1="1112.3359" y2="1132.3359"/><polygon fill="#181818" points="347.4063,1122.3359,351.4063,1132.3359,355.4063,1122.3359,351.4063,1126.3359" style="stroke:#181818;stroke-width:1;"/><line style="stroke:#181818;stroke-width:1;" x1="351.4063" x2="351.4063" y1="1166.3047" y2="1186.3047"/><polygon fill="#181818" points="347.4063,1176.3047,351.4063,1186.3047,355.4063,1176.3047,351.4063,1180.3047" style="stroke:#181818;stroke-width:1;"/><line style="stroke:#181818;stroke-width:1;" x1="248.0305" x2="187.2964" y1="1252.2734" y2="1252.2734"/><line style="stroke:#181818;stroke-width:1;" x1="187.2964" x2="187.2964" y1="1252.2734" y2="1274.2734"/><polygon fill="#181818" points="183.2964,1264.2734,187.2964,1274.2734,191.2964,1264.2734,187.2964,1268.2734" style="stroke:#181818;stroke-width:1;"/><line style="stroke:#181818;stroke-width:1;" x1="454.782" x2="515.5161" y1="1252.2734" y2="1252.2734"/><line style="stroke:#181818;stroke-width:1;" x1="515.5161" x2="515.5161" y1="1252.2734" y2="1274.2734"/><polygon fill="#181818" points="511.5161,1264.2734,515.5161,1274.2734,519.5161,1264.2734,515.5161,1268.2734" style="stroke:#181818;stroke-width:1;"/><line style="stroke:#181818;stroke-width:1;" x1="187.2964" x2="187.2964" y1="1308.2422" y2="1326.2422"/><line style="stroke:#181818;stroke-width:1;" x1="187.2964" x2="339.4063" y1="1326.2422" y2="1326.2422"/><polygon fill="#181818" points="329.4063,1322.2422,339.4063,1326.2422,329.4063,1330.2422,333.4063,1326.2422" style="stroke:#181818;stroke-width:1;"/><line style="stroke:#181818;stroke-width:1;" x1="515.5161" x2="515.5161" y1="1308.2422" y2="1326.2422"/><line style="stroke:#181818;stroke-width:1;" x1="515.5161" x2="363.4063" y1="1326.2422" y2="1326.2422"/><polygon fill="#181818" points="373.4063,1322.2422,363.4063,1326.2422,373.4063,1330.2422,369.4063,1326.2422" style="stroke:#181818;stroke-width:1;"/><line style="stroke:#181818;stroke-width:1;" x1="351.4063" x2="351.4063" y1="1220.2734" y2="1240.2734"/><polygon fill="#181818" points="347.4063,1230.2734,351.4063,1240.2734,355.4063,1230.2734,351.4063,1234.2734" style="stroke:#181818;stroke-width:1;"/><line style="stroke:#181818;stroke-width:1;" x1="351.4063" x2="351.4063" y1="1338.2422" y2="1358.2422"/><polygon fill="#181818" points="347.4063,1348.2422,351.4063,1358.2422,355.4063,1348.2422,351.4063,1352.2422" style="stroke:#181818;stroke-width:1;"/><line style="stroke:#181818;stroke-width:1;" x1="230.6389" x2="175.5264" y1="1424.2109" y2="1424.2109"/><line style="stroke:#181818;stroke-width:1;" x1="175.5264" x2="175.5264" y1="1424.2109" y2="1446.2109"/><polygon fill="#181818" points="171.5264,1436.2109,175.5264,1446.2109,179.5264,1436.2109,175.5264,1440.2109" style="stroke:#181818;stroke-width:1;"/><line style="stroke:#181818;stroke-width:1;" x1="472.1736" x2="527.2861" y1="1424.2109" y2="1424.2109"/><line style="stroke:#181818;stroke-width:1;" x1="527.2861" x2="527.2861" y1="1424.2109" y2="1446.2109"/><polygon fill="#181818" points="523.2861,1436.2109,527.2861,1446.2109,531.2861,1436.2109,527.2861,1440.2109" style="stroke:#181818;stroke-width:1;"/><line style="stroke:#181818;stroke-width:1;" x1="175.5264" x2="175.5264" y1="1480.1797" y2="1498.1797"/><line style="stroke:#181818;stroke-width:1;" x1="175.5264" x2="339.4063" y1="1498.1797" y2="1498.1797"/><polygon fill="#181818" points="329.4063,1494.1797,339.4063,1498.1797,329.4063,1502.1797,333.4063,1498.1797" style="stroke:#181818;stroke-width:1;"/><line style="stroke:#181818;stroke-width:1;" x1="527.2861" x2="527.2861" y1="1480.1797" y2="1498.1797"/><line style="stroke:#181818;stroke-width:1;" x1="527.2861" x2="363.4063" y1="1498.1797" y2="1498.1797"/><polygon fill="#181818" points="373.4063,1494.1797,363.4063,1498.1797,373.4063,1502.1797,369.4063,1498.1797" style="stroke:#181818;stroke-width:1;"/><line style="stroke:#181818;stroke-width:1;" x1="351.4063" x2="351.4063" y1="1392.2109" y2="1412.2109"/><polygon fill="#181818" points="347.4063,1402.2109,351.4063,1412.2109,355.4063,1402.2109,351.4063,1406.2109" style="stroke:#181818;stroke-width:1;"/><line style="stroke:#181818;stroke-width:1;" x1="351.4063" x2="351.4063" y1="1510.1797" y2="1530.1797"/><polygon fill="#181818" points="347.4063,1520.1797,351.4063,1530.1797,355.4063,1520.1797,351.4063,1524.1797" style="stroke:#181818;stroke-width:1;"/><!--SRC=[ZLIxSjim4Epr5IZbCZEfuY93MxORAz4uYViZS98k0N4C7exZlr7fGbK-83FXZ-L0q2HZkuWg4RpRszjTC4JmSR5uTt4VFMXDtI-d32eBglKSiJiw69utgxDJARn5JrlIC2z5zq0DA32e4nYGCjggvP_V7r1Ze0XAimlHfmc_OTizwcJX_OcAUtHg6RhZoKB9xztvysAPCDQVBj0PsWgHinGq-1dDseBJh9PNrvit9prLiEm7eZNLbdZdkqCcdr4nH334uUM4WVsQ3Lemh3n-JxAruLV8VWcS0IhRxk6IhL4j-0nMMYUsrzIqDASRr4-HfMajYWCo8f1973BjAtJevSoGwmwDi0sP76PkKgPI02Uahcu-hglpJxdXGZQfoTB3StmKFLpCMFsoh6e8O7FB3KAf9nTnDBvlpl8i3Ujlo4fJvDP2QBf39CszgckG5c6eiiuzS6t5KC8yAQZLPlDM1LGWOFUI2cdns2B4ejUD_8_aLPKYvo7gbfpKb1BrOq-2bRN7h-pBEdM_cm5JbkYEGQX8ReHAjIKlkRlBFiicUwg5hoUMnLziN8cObWA5VwF0Ad3j9G6qoxBs1Wp9UZhAQ9LbL19z45KvUZbinBUQhGpiUox9zaAFJQrGgbRhYyzpIuKDvhWOY2Lus-uW6sXva2oWrmGMmvZ0woUm83PrZzc2e5WvYCddmYcFq_iXbzEwCaLYasoMez0QWpNbIe9gXTfoX1vWLYK7Mp79bcYZg9roecIZNNU4Vi0yHLFc9mupv_W9Xep4Cr-99dijmPvPC5p0IM8LKYiJtE1oYIlecC2-_WNHDeMIQPOl4Dt1uFFCjd9l1rz70VWL38Sx-3-CidcGM_CN]--></g></svg>